<svg xmlns="http://www.w3.org/2000/svg" viewBox="0 0 128 128">
  <defs>
    <style>
      .cls-1 {
        fill: none;
      }

      .cls-2 {
        fill: black;
      }

      @media (prefers-color-scheme: dark) {
        .cls-2 {
          fill: white;
        }
      }
    </style>
  </defs>
  <rect class="cls-1" width="128" height="128"/>
  <path class="cls-2" d="M66.64,95.44h-15.2L25.99,56.84v38.6H10.79V32.56h15.2l25.43,38.96V32.56h15.2v62.88h.01Z"/>
  <path class="cls-2" d="M106.8,35.12c3.24,1.7,5.78,4.16,7.63,7.37,1.85,3.21,2.78,6.97,2.78,11.26s-.93,8.05-2.78,11.26c-1.85,3.21-4.4,5.67-7.63,7.37s-6.9,2.56-11.01,2.56-7.78-.85-11.04-2.56c-3.26-1.7-5.82-4.16-7.67-7.37s-2.78-6.97-2.78-11.26,.93-8.05,2.78-11.26c1.85-3.21,4.41-5.67,7.67-7.37,3.26-1.7,6.94-2.56,11.04-2.56s7.77,.85,11.01,2.56Zm-17.12,11.04c-1.66,1.75-2.48,4.29-2.48,7.6s.83,5.83,2.48,7.56c1.66,1.73,3.69,2.59,6.11,2.59s4.45-.86,6.08-2.59,2.45-4.25,2.45-7.56-.82-5.84-2.45-7.6-3.66-2.63-6.08-2.63-4.46,.88-6.11,2.63Z"/>
  <rect class="cls-2" x="74.3" y="84.72" width="42.91" height="10.72"/>
</svg>